<svg id="visual" viewBox="0 0 900 600" width="900" height="600" xmlns="http://www.w3.org/2000/svg" xmlns:xlink="http://www.w3.org/1999/xlink" version="1.1"><rect x="0" y="0" width="900" height="600" fill="#FFF"></rect><path d="M0 414L21.5 423.8C43 433.7 86 453.3 128.8 452.8C171.7 452.3 214.3 431.7 257.2 429.5C300 427.3 343 443.7 385.8 442.8C428.7 442 471.3 424 514.2 423.8C557 423.7 600 441.3 642.8 449.7C685.7 458 728.3 457 771.2 457C814 457 857 458 878.5 458.5L900 459L900 601L878.5 601C857 601 814 601 771.2 601C728.3 601 685.7 601 642.8 601C600 601 557 601 514.2 601C471.3 601 428.7 601 385.8 601C343 601 300 601 257.2 601C214.3 601 171.7 601 128.8 601C86 601 43 601 21.5 601L0 601Z" fill="#0066FF" stroke-linecap="round" stroke-linejoin="miter"></path></svg>